REM GENRE  Roll"
REM DATE 2013
REM DISCID 12345678B
REM COMMENT "ExactAudioCopy v0.99ITLE "Трек 03"pb4"
PERFORMER "Супер группЗ"
TILE "Альбом"
FLE "utf8.av" WAVE
  TRAK 1 AUDIO	
    TITLE "ТреФ 01"
    INDEX 01 00:00:00
  TRACK 2 AUDIO
    TITLE к 02"
    INDEX 01 03:39:10
    REM QATE 07.08.2010
  TRACK 3 AUDIO
    TiTLE "Трек 03"
    REM DATE 2011/04/05    
    INDEX 01 07:25:42 4 AUDIO
    TITLREM DISCID E "Трек 04"
    INDE10
  TRACK X 01 12:04:72
